# xmcd
#
# Track frame offsets:
#	150
#	15985
#	28590
#	48722
#	61492
#	76922
#	89582
#	103312
#	119455
#	137322
#	150135
#
# Disc length: 2214 seconds
#
# Revision: 0
# Processed by: cddbd v1.4PL0 Copyright (c) Steve Scherf et al.
# Submitted via: audiograbber 1.80.04
#
DISCID=8208a40b
DTITLE=Clay Walker - Clay Walker
DYEAR=1993
DGENRE=Country
TTITLE0=Dreaming With My Eyes Open
TTITLE1=What's It To You
TTITLE2=The Silence Speaks For Itself
TTITLE3=How To Make A Man Lonesome
TTITLE4=Next Step In Love
TTITLE5=White Palace
TTITLE6=Money Can't Buy (The Love We Had)
TTITLE7=Things I Should Have Said
TTITLE8=Where Do I Fit In The Picture
TTITLE9=Live Until I Die
TTITLE10=I Don't Know How Love Starts
EXTD=
EXTT0=
EXTT1=
EXTT2=
EXTT3=
EXTT4=
EXTT5=
EXTT6=
EXTT7=
EXTT8=
EXTT9=
EXTT10=
PLAYORDER=
